<?xml version="1.0" encoding="utf-8" standalone="no"?>
<!DOCTYPE svg PUBLIC "-//W3C//DTD SVG 1.1//EN"
  "http://www.w3.org/Graphics/SVG/1.1/DTD/svg11.dtd">
<!-- Created with matplotlib (https://matplotlib.org/) -->
<svg height="345.6pt" version="1.1" viewBox="0 0 460.8 345.6" width="460.8pt" xmlns="http://www.w3.org/2000/svg" xmlns:xlink="http://www.w3.org/1999/xlink">
 <defs>
  <style type="text/css">
*{stroke-linecap:butt;stroke-linejoin:round;}
  </style>
 </defs>
 <g id="figure_1">
  <g id="patch_1">
   <path d="M 0 345.6 
L 460.8 345.6 
L 460.8 0 
L 0 0 
z
" style="fill:#ffffff;"/>
  </g>
  <g id="axes_1">
   <g id="patch_2">
    <path d="M 50.036435 136.24 
L 450 136.24 
L 450 10.8 
L 50.036435 10.8 
z
" style="fill:#ffffff;"/>
   </g>
   <g id="matplotlib.axis_1">
    <g id="xtick_1">
     <g id="line2d_1">
      <defs>
       <path d="M 0 0 
L 0 3.5 
" id="ma8aae529ff" style="stroke:#000000;stroke-width:0.8;"/>
      </defs>
      <g>
       <use style="stroke:#000000;stroke-width:0.8;" x="68.034613" xlink:href="#ma8aae529ff" y="136.24"/>
      </g>
     </g>
     <g id="text_1">
      <!-- 0 -->
      <defs>
       <path d="M 31.78125 66.40625 
Q 24.171875 66.40625 20.328125 58.90625 
Q 16.5 51.421875 16.5 36.375 
Q 16.5 21.390625 20.328125 13.890625 
Q 24.171875 6.390625 31.78125 6.390625 
Q 39.453125 6.390625 43.28125 13.890625 
Q 47.125 21.390625 47.125 36.375 
Q 47.125 51.421875 43.28125 58.90625 
Q 39.453125 66.40625 31.78125 66.40625 
z
M 31.78125 74.21875 
Q 44.046875 74.21875 50.515625 64.515625 
Q 56.984375 54.828125 56.984375 36.375 
Q 56.984375 17.96875 50.515625 8.265625 
Q 44.046875 -1.421875 31.78125 -1.421875 
Q 19.53125 -1.421875 13.0625 8.265625 
Q 6.59375 17.96875 6.59375 36.375 
Q 6.59375 54.828125 13.0625 64.515625 
Q 19.53125 74.21875 31.78125 74.21875 
z
" id="DejaVuSans-48"/>
      </defs>
      <g transform="translate(64.853363 150.838437)scale(0.1 -0.1)">
       <use xlink:href="#DejaVuSans-48"/>
      </g>
     </g>
    </g>
    <g id="xtick_2">
     <g id="line2d_2">
      <g>
       <use style="stroke:#000000;stroke-width:0.8;" x="140.828055" xlink:href="#ma8aae529ff" y="136.24"/>
      </g>
     </g>
     <g id="text_2">
      <!-- 2 -->
      <defs>
       <path d="M 19.1875 8.296875 
L 53.609375 8.296875 
L 53.609375 0 
L 7.328125 0 
L 7.328125 8.296875 
Q 12.9375 14.109375 22.625 23.890625 
Q 32.328125 33.6875 34.8125 36.53125 
Q 39.546875 41.84375 41.421875 45.53125 
Q 43.3125 49.21875 43.3125 52.78125 
Q 43.3125 58.59375 39.234375 62.25 
Q 35.15625 65.921875 28.609375 65.921875 
Q 23.96875 65.921875 18.8125 64.3125 
Q 13.671875 62.703125 7.8125 59.421875 
L 7.8125 69.390625 
Q 13.765625 71.78125 18.9375 73 
Q 24.125 74.21875 28.421875 74.21875 
Q 39.75 74.21875 46.484375 68.546875 
Q 53.21875 62.890625 53.21875 53.421875 
Q 53.21875 48.921875 51.53125 44.890625 
Q 49.859375 40.875 45.40625 35.40625 
Q 44.1875 33.984375 37.640625 27.21875 
Q 31.109375 20.453125 19.1875 8.296875 
z
" id="DejaVuSans-50"/>
      </defs>
      <g transform="translate(137.646805 150.838437)scale(0.1 -0.1)">
       <use xlink:href="#DejaVuSans-50"/>
      </g>
     </g>
    </g>
    <g id="xtick_3">
     <g id="line2d_3">
      <g>
       <use style="stroke:#000000;stroke-width:0.8;" x="213.621497" xlink:href="#ma8aae529ff" y="136.24"/>
      </g>
     </g>
     <g id="text_3">
      <!-- 4 -->
      <defs>
       <path d="M 37.796875 64.3125 
L 12.890625 25.390625 
L 37.796875 25.390625 
z
M 35.203125 72.90625 
L 47.609375 72.90625 
L 47.609375 25.390625 
L 58.015625 25.390625 
L 58.015625 17.1875 
L 47.609375 17.1875 
L 47.609375 0 
L 37.796875 0 
L 37.796875 17.1875 
L 4.890625 17.1875 
L 4.890625 26.703125 
z
" id="DejaVuSans-52"/>
      </defs>
      <g transform="translate(210.440247 150.838437)scale(0.1 -0.1)">
       <use xlink:href="#DejaVuSans-52"/>
      </g>
     </g>
    </g>
    <g id="xtick_4">
     <g id="line2d_4">
      <g>
       <use style="stroke:#000000;stroke-width:0.8;" x="286.414938" xlink:href="#ma8aae529ff" y="136.24"/>
      </g>
     </g>
     <g id="text_4">
      <!-- 6 -->
      <defs>
       <path d="M 33.015625 40.375 
Q 26.375 40.375 22.484375 35.828125 
Q 18.609375 31.296875 18.609375 23.390625 
Q 18.609375 15.53125 22.484375 10.953125 
Q 26.375 6.390625 33.015625 6.390625 
Q 39.65625 6.390625 43.53125 10.953125 
Q 47.40625 15.53125 47.40625 23.390625 
Q 47.40625 31.296875 43.53125 35.828125 
Q 39.65625 40.375 33.015625 40.375 
z
M 52.59375 71.296875 
L 52.59375 62.3125 
Q 48.875 64.0625 45.09375 64.984375 
Q 41.3125 65.921875 37.59375 65.921875 
Q 27.828125 65.921875 22.671875 59.328125 
Q 17.53125 52.734375 16.796875 39.40625 
Q 19.671875 43.65625 24.015625 45.921875 
Q 28.375 48.1875 33.59375 48.1875 
Q 44.578125 48.1875 50.953125 41.515625 
Q 57.328125 34.859375 57.328125 23.390625 
Q 57.328125 12.15625 50.6875 5.359375 
Q 44.046875 -1.421875 33.015625 -1.421875 
Q 20.359375 -1.421875 13.671875 8.265625 
Q 6.984375 17.96875 6.984375 36.375 
Q 6.984375 53.65625 15.1875 63.9375 
Q 23.390625 74.21875 37.203125 74.21875 
Q 40.921875 74.21875 44.703125 73.484375 
Q 48.484375 72.75 52.59375 71.296875 
z
" id="DejaVuSans-54"/>
      </defs>
      <g transform="translate(283.233688 150.838437)scale(0.1 -0.1)">
       <use xlink:href="#DejaVuSans-54"/>
      </g>
     </g>
    </g>
    <g id="xtick_5">
     <g id="line2d_5">
      <g>
       <use style="stroke:#000000;stroke-width:0.8;" x="359.20838" xlink:href="#ma8aae529ff" y="136.24"/>
      </g>
     </g>
     <g id="text_5">
      <!-- 8 -->
      <defs>
       <path d="M 31.78125 34.625 
Q 24.75 34.625 20.71875 30.859375 
Q 16.703125 27.09375 16.703125 20.515625 
Q 16.703125 13.921875 20.71875 10.15625 
Q 24.75 6.390625 31.78125 6.390625 
Q 38.8125 6.390625 42.859375 10.171875 
Q 46.921875 13.96875 46.921875 20.515625 
Q 46.921875 27.09375 42.890625 30.859375 
Q 38.875 34.625 31.78125 34.625 
z
M 21.921875 38.8125 
Q 15.578125 40.375 12.03125 44.71875 
Q 8.5 49.078125 8.5 55.328125 
Q 8.5 64.0625 14.71875 69.140625 
Q 20.953125 74.21875 31.78125 74.21875 
Q 42.671875 74.21875 48.875 69.140625 
Q 55.078125 64.0625 55.078125 55.328125 
Q 55.078125 49.078125 51.53125 44.71875 
Q 48 40.375 41.703125 38.8125 
Q 48.828125 37.15625 52.796875 32.3125 
Q 56.78125 27.484375 56.78125 20.515625 
Q 56.78125 9.90625 50.3125 4.234375 
Q 43.84375 -1.421875 31.78125 -1.421875 
Q 19.734375 -1.421875 13.25 4.234375 
Q 6.78125 9.90625 6.78125 20.515625 
Q 6.78125 27.484375 10.78125 32.3125 
Q 14.796875 37.15625 21.921875 38.8125 
z
M 18.3125 54.390625 
Q 18.3125 48.734375 21.84375 45.5625 
Q 25.390625 42.390625 31.78125 42.390625 
Q 38.140625 42.390625 41.71875 45.5625 
Q 45.3125 48.734375 45.3125 54.390625 
Q 45.3125 60.0625 41.71875 63.234375 
Q 38.140625 66.40625 31.78125 66.40625 
Q 25.390625 66.40625 21.84375 63.234375 
Q 18.3125 60.0625 18.3125 54.390625 
z
" id="DejaVuSans-56"/>
      </defs>
      <g transform="translate(356.02713 150.838437)scale(0.1 -0.1)">
       <use xlink:href="#DejaVuSans-56"/>
      </g>
     </g>
    </g>
    <g id="xtick_6">
     <g id="line2d_6">
      <g>
       <use style="stroke:#000000;stroke-width:0.8;" x="432.001822" xlink:href="#ma8aae529ff" y="136.24"/>
      </g>
     </g>
     <g id="text_6">
      <!-- 10 -->
      <defs>
       <path d="M 12.40625 8.296875 
L 28.515625 8.296875 
L 28.515625 63.921875 
L 10.984375 60.40625 
L 10.984375 69.390625 
L 28.421875 72.90625 
L 38.28125 72.90625 
L 38.28125 8.296875 
L 54.390625 8.296875 
L 54.390625 0 
L 12.40625 0 
z
" id="DejaVuSans-49"/>
      </defs>
      <g transform="translate(425.639322 150.838437)scale(0.1 -0.1)">
       <use xlink:href="#DejaVuSans-49"/>
       <use x="63.623047" xlink:href="#DejaVuSans-48"/>
      </g>
     </g>
    </g>
    <g id="text_7">
     <!-- Distance from source (mm) -->
     <defs>
      <path d="M 19.671875 64.796875 
L 19.671875 8.109375 
L 31.59375 8.109375 
Q 46.6875 8.109375 53.6875 14.9375 
Q 60.6875 21.78125 60.6875 36.53125 
Q 60.6875 51.171875 53.6875 57.984375 
Q 46.6875 64.796875 31.59375 64.796875 
z
M 9.8125 72.90625 
L 30.078125 72.90625 
Q 51.265625 72.90625 61.171875 64.09375 
Q 71.09375 55.28125 71.09375 36.53125 
Q 71.09375 17.671875 61.125 8.828125 
Q 51.171875 0 30.078125 0 
L 9.8125 0 
z
" id="DejaVuSans-68"/>
      <path d="M 9.421875 54.6875 
L 18.40625 54.6875 
L 18.40625 0 
L 9.421875 0 
z
M 9.421875 75.984375 
L 18.40625 75.984375 
L 18.40625 64.59375 
L 9.421875 64.59375 
z
" id="DejaVuSans-105"/>
      <path d="M 44.28125 53.078125 
L 44.28125 44.578125 
Q 40.484375 46.53125 36.375 47.5 
Q 32.28125 48.484375 27.875 48.484375 
Q 21.1875 48.484375 17.84375 46.4375 
Q 14.5 44.390625 14.5 40.28125 
Q 14.5 37.15625 16.890625 35.375 
Q 19.28125 33.59375 26.515625 31.984375 
L 29.59375 31.296875 
Q 39.15625 29.25 43.1875 25.515625 
Q 47.21875 21.78125 47.21875 15.09375 
Q 47.21875 7.46875 41.1875 3.015625 
Q 35.15625 -1.421875 24.609375 -1.421875 
Q 20.21875 -1.421875 15.453125 -0.5625 
Q 10.6875 0.296875 5.421875 2 
L 5.421875 11.28125 
Q 10.40625 8.6875 15.234375 7.390625 
Q 20.0625 6.109375 24.8125 6.109375 
Q 31.15625 6.109375 34.5625 8.28125 
Q 37.984375 10.453125 37.984375 14.40625 
Q 37.984375 18.0625 35.515625 20.015625 
Q 33.0625 21.96875 24.703125 23.78125 
L 21.578125 24.515625 
Q 13.234375 26.265625 9.515625 29.90625 
Q 5.8125 33.546875 5.8125 39.890625 
Q 5.8125 47.609375 11.28125 51.796875 
Q 16.75 56 26.8125 56 
Q 31.78125 56 36.171875 55.265625 
Q 40.578125 54.546875 44.28125 53.078125 
z
" id="DejaVuSans-115"/>
      <path d="M 18.3125 70.21875 
L 18.3125 54.6875 
L 36.8125 54.6875 
L 36.8125 47.703125 
L 18.3125 47.703125 
L 18.3125 18.015625 
Q 18.3125 11.328125 20.140625 9.421875 
Q 21.96875 7.515625 27.59375 7.515625 
L 36.8125 7.515625 
L 36.8125 0 
L 27.59375 0 
Q 17.1875 0 13.234375 3.875 
Q 9.28125 7.765625 9.28125 18.015625 
L 9.28125 47.703125 
L 2.6875 47.703125 
L 2.6875 54.6875 
L 9.28125 54.6875 
L 9.28125 70.21875 
z
" id="DejaVuSans-116"/>
      <path d="M 34.28125 27.484375 
Q 23.390625 27.484375 19.1875 25 
Q 14.984375 22.515625 14.984375 16.5 
Q 14.984375 11.71875 18.140625 8.90625 
Q 21.296875 6.109375 26.703125 6.109375 
Q 34.1875 6.109375 38.703125 11.40625 
Q 43.21875 16.703125 43.21875 25.484375 
L 43.21875 27.484375 
z
M 52.203125 31.203125 
L 52.203125 0 
L 43.21875 0 
L 43.21875 8.296875 
Q 40.140625 3.328125 35.546875 0.953125 
Q 30.953125 -1.421875 24.3125 -1.421875 
Q 15.921875 -1.421875 10.953125 3.296875 
Q 6 8.015625 6 15.921875 
Q 6 25.140625 12.171875 29.828125 
Q 18.359375 34.515625 30.609375 34.515625 
L 43.21875 34.515625 
L 43.21875 35.40625 
Q 43.21875 41.609375 39.140625 45 
Q 35.0625 48.390625 27.6875 48.390625 
Q 23 48.390625 18.546875 47.265625 
Q 14.109375 46.140625 10.015625 43.890625 
L 10.015625 52.203125 
Q 14.9375 54.109375 19.578125 55.046875 
Q 24.21875 56 28.609375 56 
Q 40.484375 56 46.34375 49.84375 
Q 52.203125 43.703125 52.203125 31.203125 
z
" id="DejaVuSans-97"/>
      <path d="M 54.890625 33.015625 
L 54.890625 0 
L 45.90625 0 
L 45.90625 32.71875 
Q 45.90625 40.484375 42.875 44.328125 
Q 39.84375 48.1875 33.796875 48.1875 
Q 26.515625 48.1875 22.3125 43.546875 
Q 18.109375 38.921875 18.109375 30.90625 
L 18.109375 0 
L 9.078125 0 
L 9.078125 54.6875 
L 18.109375 54.6875 
L 18.109375 46.1875 
Q 21.34375 51.125 25.703125 53.5625 
Q 30.078125 56 35.796875 56 
Q 45.21875 56 50.046875 50.171875 
Q 54.890625 44.34375 54.890625 33.015625 
z
" id="DejaVuSans-110"/>
      <path d="M 48.78125 52.59375 
L 48.78125 44.1875 
Q 44.96875 46.296875 41.140625 47.34375 
Q 37.3125 48.390625 33.40625 48.390625 
Q 24.65625 48.390625 19.8125 42.84375 
Q 14.984375 37.3125 14.984375 27.296875 
Q 14.984375 17.28125 19.8125 11.734375 
Q 24.65625 6.203125 33.40625 6.203125 
Q 37.3125 6.203125 41.140625 7.25 
Q 44.96875 8.296875 48.78125 10.40625 
L 48.78125 2.09375 
Q 45.015625 0.34375 40.984375 -0.53125 
Q 36.96875 -1.421875 32.421875 -1.421875 
Q 20.0625 -1.421875 12.78125 6.34375 
Q 5.515625 14.109375 5.515625 27.296875 
Q 5.515625 40.671875 12.859375 48.328125 
Q 20.21875 56 33.015625 56 
Q 37.15625 56 41.109375 55.140625 
Q 45.0625 54.296875 48.78125 52.59375 
z
" id="DejaVuSans-99"/>
      <path d="M 56.203125 29.59375 
L 56.203125 25.203125 
L 14.890625 25.203125 
Q 15.484375 15.921875 20.484375 11.0625 
Q 25.484375 6.203125 34.421875 6.203125 
Q 39.59375 6.203125 44.453125 7.46875 
Q 49.3125 8.734375 54.109375 11.28125 
L 54.109375 2.78125 
Q 49.265625 0.734375 44.1875 -0.34375 
Q 39.109375 -1.421875 33.890625 -1.421875 
Q 20.796875 -1.421875 13.15625 6.1875 
Q 5.515625 13.8125 5.515625 26.8125 
Q 5.515625 40.234375 12.765625 48.109375 
Q 20.015625 56 32.328125 56 
Q 43.359375 56 49.78125 48.890625 
Q 56.203125 41.796875 56.203125 29.59375 
z
M 47.21875 32.234375 
Q 47.125 39.59375 43.09375 43.984375 
Q 39.0625 48.390625 32.421875 48.390625 
Q 24.90625 48.390625 20.390625 44.140625 
Q 15.875 39.890625 15.1875 32.171875 
z
" id="DejaVuSans-101"/>
      <path id="DejaVuSans-32"/>
      <path d="M 37.109375 75.984375 
L 37.109375 68.5 
L 28.515625 68.5 
Q 23.6875 68.5 21.796875 66.546875 
Q 19.921875 64.59375 19.921875 59.515625 
L 19.921875 54.6875 
L 34.71875 54.6875 
L 34.71875 47.703125 
L 19.921875 47.703125 
L 19.921875 0 
L 10.890625 0 
L 10.890625 47.703125 
L 2.296875 47.703125 
L 2.296875 54.6875 
L 10.890625 54.6875 
L 10.890625 58.5 
Q 10.890625 67.625 15.140625 71.796875 
Q 19.390625 75.984375 28.609375 75.984375 
z
" id="DejaVuSans-102"/>
      <path d="M 41.109375 46.296875 
Q 39.59375 47.171875 37.8125 47.578125 
Q 36.03125 48 33.890625 48 
Q 26.265625 48 22.1875 43.046875 
Q 18.109375 38.09375 18.109375 28.8125 
L 18.109375 0 
L 9.078125 0 
L 9.078125 54.6875 
L 18.109375 54.6875 
L 18.109375 46.1875 
Q 20.953125 51.171875 25.484375 53.578125 
Q 30.03125 56 36.53125 56 
Q 37.453125 56 38.578125 55.875 
Q 39.703125 55.765625 41.0625 55.515625 
z
" id="DejaVuSans-114"/>
      <path d="M 30.609375 48.390625 
Q 23.390625 48.390625 19.1875 42.75 
Q 14.984375 37.109375 14.984375 27.296875 
Q 14.984375 17.484375 19.15625 11.84375 
Q 23.34375 6.203125 30.609375 6.203125 
Q 37.796875 6.203125 41.984375 11.859375 
Q 46.1875 17.53125 46.1875 27.296875 
Q 46.1875 37.015625 41.984375 42.703125 
Q 37.796875 48.390625 30.609375 48.390625 
z
M 30.609375 56 
Q 42.328125 56 49.015625 48.375 
Q 55.71875 40.765625 55.71875 27.296875 
Q 55.71875 13.875 49.015625 6.21875 
Q 42.328125 -1.421875 30.609375 -1.421875 
Q 18.84375 -1.421875 12.171875 6.21875 
Q 5.515625 13.875 5.515625 27.296875 
Q 5.515625 40.765625 12.171875 48.375 
Q 18.84375 56 30.609375 56 
z
" id="DejaVuSans-111"/>
      <path d="M 52 44.1875 
Q 55.375 50.25 60.0625 53.125 
Q 64.75 56 71.09375 56 
Q 79.640625 56 84.28125 50.015625 
Q 88.921875 44.046875 88.921875 33.015625 
L 88.921875 0 
L 79.890625 0 
L 79.890625 32.71875 
Q 79.890625 40.578125 77.09375 44.375 
Q 74.3125 48.1875 68.609375 48.1875 
Q 61.625 48.1875 57.5625 43.546875 
Q 53.515625 38.921875 53.515625 30.90625 
L 53.515625 0 
L 44.484375 0 
L 44.484375 32.71875 
Q 44.484375 40.625 41.703125 44.40625 
Q 38.921875 48.1875 33.109375 48.1875 
Q 26.21875 48.1875 22.15625 43.53125 
Q 18.109375 38.875 18.109375 30.90625 
L 18.109375 0 
L 9.078125 0 
L 9.078125 54.6875 
L 18.109375 54.6875 
L 18.109375 46.1875 
Q 21.1875 51.21875 25.484375 53.609375 
Q 29.78125 56 35.6875 56 
Q 41.65625 56 45.828125 52.96875 
Q 50 49.953125 52 44.1875 
z
" id="DejaVuSans-109"/>
      <path d="M 8.5 21.578125 
L 8.5 54.6875 
L 17.484375 54.6875 
L 17.484375 21.921875 
Q 17.484375 14.15625 20.5 10.265625 
Q 23.53125 6.390625 29.59375 6.390625 
Q 36.859375 6.390625 41.078125 11.03125 
Q 45.3125 15.671875 45.3125 23.6875 
L 45.3125 54.6875 
L 54.296875 54.6875 
L 54.296875 0 
L 45.3125 0 
L 45.3125 8.40625 
Q 42.046875 3.421875 37.71875 1 
Q 33.40625 -1.421875 27.6875 -1.421875 
Q 18.265625 -1.421875 13.375 4.4375 
Q 8.5 10.296875 8.5 21.578125 
z
M 31.109375 56 
z
" id="DejaVuSans-117"/>
      <path d="M 31 75.875 
Q 24.46875 64.65625 21.28125 53.65625 
Q 18.109375 42.671875 18.109375 31.390625 
Q 18.109375 20.125 21.3125 9.0625 
Q 24.515625 -2 31 -13.1875 
L 23.1875 -13.1875 
Q 15.875 -1.703125 12.234375 9.375 
Q 8.59375 20.453125 8.59375 31.390625 
Q 8.59375 42.28125 12.203125 53.3125 
Q 15.828125 64.359375 23.1875 75.875 
z
" id="DejaVuSans-40"/>
      <path d="M 8.015625 75.875 
L 15.828125 75.875 
Q 23.140625 64.359375 26.78125 53.3125 
Q 30.421875 42.28125 30.421875 31.390625 
Q 30.421875 20.453125 26.78125 9.375 
Q 23.140625 -1.703125 15.828125 -13.1875 
L 8.015625 -13.1875 
Q 14.5 -2 17.703125 9.0625 
Q 20.90625 20.125 20.90625 31.390625 
Q 20.90625 42.671875 17.703125 53.65625 
Q 14.5 64.65625 8.015625 75.875 
z
" id="DejaVuSans-41"/>
     </defs>
     <g transform="translate(181.511967 164.516562)scale(0.1 -0.1)">
      <use xlink:href="#DejaVuSans-68"/>
      <use x="77.001953" xlink:href="#DejaVuSans-105"/>
      <use x="104.785156" xlink:href="#DejaVuSans-115"/>
      <use x="156.884766" xlink:href="#DejaVuSans-116"/>
      <use x="196.09375" xlink:href="#DejaVuSans-97"/>
      <use x="257.373047" xlink:href="#DejaVuSans-110"/>
      <use x="320.751953" xlink:href="#DejaVuSans-99"/>
      <use x="375.732422" xlink:href="#DejaVuSans-101"/>
      <use x="437.255859" xlink:href="#DejaVuSans-32"/>
      <use x="469.042969" xlink:href="#DejaVuSans-102"/>
      <use x="504.248047" xlink:href="#DejaVuSans-114"/>
      <use x="543.111328" xlink:href="#DejaVuSans-111"/>
      <use x="604.292969" xlink:href="#DejaVuSans-109"/>
      <use x="701.705078" xlink:href="#DejaVuSans-32"/>
      <use x="733.492188" xlink:href="#DejaVuSans-115"/>
      <use x="785.591797" xlink:href="#DejaVuSans-111"/>
      <use x="846.773438" xlink:href="#DejaVuSans-117"/>
      <use x="910.152344" xlink:href="#DejaVuSans-114"/>
      <use x="949.015625" xlink:href="#DejaVuSans-99"/>
      <use x="1003.996094" xlink:href="#DejaVuSans-101"/>
      <use x="1065.519531" xlink:href="#DejaVuSans-32"/>
      <use x="1097.306641" xlink:href="#DejaVuSans-40"/>
      <use x="1136.320312" xlink:href="#DejaVuSans-109"/>
      <use x="1233.732422" xlink:href="#DejaVuSans-109"/>
      <use x="1331.144531" xlink:href="#DejaVuSans-41"/>
     </g>
    </g>
   </g>
   <g id="matplotlib.axis_2">
    <g id="ytick_1">
     <g id="line2d_7">
      <defs>
       <path d="M 0 0 
L -3.5 0 
" id="m3d428e4002" style="stroke:#000000;stroke-width:0.8;"/>
      </defs>
      <g>
       <use style="stroke:#000000;stroke-width:0.8;" x="50.036435" xlink:href="#m3d428e4002" y="107.675058"/>
      </g>
     </g>
     <g id="text_8">
      <!-- $\mathdefault{10^{1}}$ -->
      <g transform="translate(25.436435 111.474276)scale(0.1 -0.1)">
       <use transform="translate(0 0.684375)" xlink:href="#DejaVuSans-49"/>
       <use transform="translate(63.623047 0.684375)" xlink:href="#DejaVuSans-48"/>
       <use transform="translate(128.203125 38.965625)scale(0.7)" xlink:href="#DejaVuSans-49"/>
      </g>
     </g>
    </g>
    <g id="ytick_2">
     <g id="line2d_8">
      <g>
       <use style="stroke:#000000;stroke-width:0.8;" x="50.036435" xlink:href="#m3d428e4002" y="71.333797"/>
      </g>
     </g>
     <g id="text_9">
      <!-- $\mathdefault{10^{3}}$ -->
      <defs>
       <path d="M 40.578125 39.3125 
Q 47.65625 37.796875 51.625 33 
Q 55.609375 28.21875 55.609375 21.1875 
Q 55.609375 10.40625 48.1875 4.484375 
Q 40.765625 -1.421875 27.09375 -1.421875 
Q 22.515625 -1.421875 17.65625 -0.515625 
Q 12.796875 0.390625 7.625 2.203125 
L 7.625 11.71875 
Q 11.71875 9.328125 16.59375 8.109375 
Q 21.484375 6.890625 26.8125 6.890625 
Q 36.078125 6.890625 40.9375 10.546875 
Q 45.796875 14.203125 45.796875 21.1875 
Q 45.796875 27.640625 41.28125 31.265625 
Q 36.765625 34.90625 28.71875 34.90625 
L 20.21875 34.90625 
L 20.21875 43.015625 
L 29.109375 43.015625 
Q 36.375 43.015625 40.234375 45.921875 
Q 44.09375 48.828125 44.09375 54.296875 
Q 44.09375 59.90625 40.109375 62.90625 
Q 36.140625 65.921875 28.71875 65.921875 
Q 24.65625 65.921875 20.015625 65.03125 
Q 15.375 64.15625 9.8125 62.3125 
L 9.8125 71.09375 
Q 15.4375 72.65625 20.34375 73.4375 
Q 25.25 74.21875 29.59375 74.21875 
Q 40.828125 74.21875 47.359375 69.109375 
Q 53.90625 64.015625 53.90625 55.328125 
Q 53.90625 49.265625 50.4375 45.09375 
Q 46.96875 40.921875 40.578125 39.3125 
z
" id="DejaVuSans-51"/>
      </defs>
      <g transform="translate(25.436435 75.133016)scale(0.1 -0.1)">
       <use transform="translate(0 0.765625)" xlink:href="#DejaVuSans-49"/>
       <use transform="translate(63.623047 0.765625)" xlink:href="#DejaVuSans-48"/>
       <use transform="translate(128.203125 39.046875)scale(0.7)" xlink:href="#DejaVuSans-51"/>
      </g>
     </g>
    </g>
    <g id="ytick_3">
     <g id="line2d_9">
      <g>
       <use style="stroke:#000000;stroke-width:0.8;" x="50.036435" xlink:href="#m3d428e4002" y="34.992537"/>
      </g>
     </g>
     <g id="text_10">
      <!-- $\mathdefault{10^{5}}$ -->
      <defs>
       <path d="M 10.796875 72.90625 
L 49.515625 72.90625 
L 49.515625 64.59375 
L 19.828125 64.59375 
L 19.828125 46.734375 
Q 21.96875 47.46875 24.109375 47.828125 
Q 26.265625 48.1875 28.421875 48.1875 
Q 40.625 48.1875 47.75 41.5 
Q 54.890625 34.8125 54.890625 23.390625 
Q 54.890625 11.625 47.5625 5.09375 
Q 40.234375 -1.421875 26.90625 -1.421875 
Q 22.3125 -1.421875 17.546875 -0.640625 
Q 12.796875 0.140625 7.71875 1.703125 
L 7.71875 11.625 
Q 12.109375 9.234375 16.796875 8.0625 
Q 21.484375 6.890625 26.703125 6.890625 
Q 35.15625 6.890625 40.078125 11.328125 
Q 45.015625 15.765625 45.015625 23.390625 
Q 45.015625 31 40.078125 35.4375 
Q 35.15625 39.890625 26.703125 39.890625 
Q 22.75 39.890625 18.8125 39.015625 
Q 14.890625 38.140625 10.796875 36.28125 
z
" id="DejaVuSans-53"/>
      </defs>
      <g transform="translate(25.436435 38.791755)scale(0.1 -0.1)">
       <use transform="translate(0 0.684375)" xlink:href="#DejaVuSans-49"/>
       <use transform="translate(63.623047 0.684375)" xlink:href="#DejaVuSans-48"/>
       <use transform="translate(128.203125 38.965625)scale(0.7)" xlink:href="#DejaVuSans-53"/>
      </g>
     </g>
    </g>
    <g id="text_11">
     <!-- Reflectance -->
     <defs>
      <path d="M 44.390625 34.1875 
Q 47.5625 33.109375 50.5625 29.59375 
Q 53.5625 26.078125 56.59375 19.921875 
L 66.609375 0 
L 56 0 
L 46.6875 18.703125 
Q 43.0625 26.03125 39.671875 28.421875 
Q 36.28125 30.8125 30.421875 30.8125 
L 19.671875 30.8125 
L 19.671875 0 
L 9.8125 0 
L 9.8125 72.90625 
L 32.078125 72.90625 
Q 44.578125 72.90625 50.734375 67.671875 
Q 56.890625 62.453125 56.890625 51.90625 
Q 56.890625 45.015625 53.6875 40.46875 
Q 50.484375 35.9375 44.390625 34.1875 
z
M 19.671875 64.796875 
L 19.671875 38.921875 
L 32.078125 38.921875 
Q 39.203125 38.921875 42.84375 42.21875 
Q 46.484375 45.515625 46.484375 51.90625 
Q 46.484375 58.296875 42.84375 61.546875 
Q 39.203125 64.796875 32.078125 64.796875 
z
" id="DejaVuSans-82"/>
      <path d="M 9.421875 75.984375 
L 18.40625 75.984375 
L 18.40625 0 
L 9.421875 0 
z
" id="DejaVuSans-108"/>
     </defs>
     <g transform="translate(19.356747 102.839531)rotate(-90)scale(0.1 -0.1)">
      <use xlink:href="#DejaVuSans-82"/>
      <use x="64.982422" xlink:href="#DejaVuSans-101"/>
      <use x="126.505859" xlink:href="#DejaVuSans-102"/>
      <use x="161.710938" xlink:href="#DejaVuSans-108"/>
      <use x="189.494141" xlink:href="#DejaVuSans-101"/>
      <use x="251.017578" xlink:href="#DejaVuSans-99"/>
      <use x="305.998047" xlink:href="#DejaVuSans-116"/>
      <use x="345.207031" xlink:href="#DejaVuSans-97"/>
      <use x="406.486328" xlink:href="#DejaVuSans-110"/>
      <use x="469.865234" xlink:href="#DejaVuSans-99"/>
      <use x="524.845703" xlink:href="#DejaVuSans-101"/>
     </g>
    </g>
   </g>
   <g id="line2d_10">
    <path clip-path="url(#pb8590ed19e)" d="M 68.216597 16.501818 
L 68.580564 27.362662 
L 68.944531 32.840807 
L 69.672466 39.357058 
L 70.764367 44.773493 
L 71.492302 46.605812 
L 71.856269 48.014261 
L 72.220236 48.510566 
L 72.948171 50.361462 
L 73.312138 50.498238 
L 73.676105 51.049021 
L 74.404039 52.757047 
L 74.768007 53.007535 
L 75.131974 53.514385 
L 75.495941 53.43637 
L 75.859908 53.82223 
L 76.587843 55.114912 
L 77.315777 55.427693 
L 78.043711 56.604621 
L 78.407679 56.304529 
L 78.771646 56.672304 
L 79.135613 56.549258 
L 79.49958 56.792121 
L 79.863547 57.481275 
L 80.227515 57.726268 
L 80.591482 57.723139 
L 80.955449 58.140093 
L 81.319416 58.094833 
L 81.683384 58.346934 
L 82.047351 58.971604 
L 82.411318 58.845283 
L 83.867187 59.799556 
L 84.231154 59.70505 
L 84.595121 60.226699 
L 84.959088 60.259696 
L 85.323056 60.767815 
L 85.687023 60.599028 
L 86.414957 60.97519 
L 86.778924 61.56671 
L 87.142892 61.267676 
L 87.870826 61.258126 
L 88.234793 61.779014 
L 88.962728 61.703718 
L 89.326695 61.894296 
L 89.690662 62.575106 
L 90.054629 62.796889 
L 90.418597 62.269773 
L 91.510498 63.118049 
L 91.874465 63.031511 
L 92.966367 63.359484 
L 93.330334 63.506149 
L 93.694301 63.875435 
L 94.058269 63.853872 
L 94.422236 64.392649 
L 94.786203 64.174666 
L 95.15017 64.205879 
L 95.514137 64.452871 
L 95.878105 64.300408 
L 97.697941 65.218579 
L 98.061908 64.942835 
L 98.425875 65.689702 
L 98.789842 65.191081 
L 99.517777 65.681824 
L 99.881744 65.64815 
L 100.245711 66.004843 
L 101.337613 66.109288 
L 101.70158 66.63293 
L 102.793482 66.564346 
L 103.521416 66.897484 
L 103.885383 66.677107 
L 104.24935 67.140983 
L 104.613318 67.032684 
L 104.977285 67.415145 
L 105.341252 67.550358 
L 105.705219 67.132583 
L 106.433154 67.516419 
L 106.797121 67.358505 
L 107.161088 67.918562 
L 107.889023 67.729208 
L 108.25299 68.189723 
L 108.616957 67.778464 
L 108.980924 68.515276 
L 109.344891 68.016193 
L 109.708859 68.471915 
L 110.072826 68.224975 
L 111.164727 69.041529 
L 111.528695 68.928245 
L 111.892662 69.14085 
L 112.256629 68.974361 
L 112.620596 69.286009 
L 113.348531 69.473834 
L 113.712498 69.999032 
L 114.076465 69.599185 
L 114.440432 70.009508 
L 114.804399 69.898406 
L 115.168367 70.010522 
L 115.532334 69.91759 
L 115.896301 70.145031 
L 116.260268 69.990788 
L 116.624236 70.778943 
L 116.988203 70.76592 
L 117.716137 70.326327 
L 118.080104 70.30268 
L 118.444072 71.303798 
L 118.808039 70.755842 
L 119.172006 71.155087 
L 119.535973 70.873858 
L 119.89994 70.93518 
L 120.627875 71.504766 
L 120.991842 71.334937 
L 121.355809 71.389233 
L 121.719776 71.874638 
L 122.447711 71.588035 
L 122.811678 71.897904 
L 123.539612 71.729154 
L 123.90358 72.358201 
L 124.631514 72.483445 
L 124.995481 72.207352 
L 125.359449 72.5665 
L 125.723416 72.201288 
L 126.087383 73.053534 
L 126.45135 72.699522 
L 126.815317 72.658968 
L 127.179285 72.783611 
L 127.543252 73.417966 
L 127.907219 72.864445 
L 128.271186 73.740929 
L 128.635153 72.962768 
L 128.999121 73.274702 
L 129.363088 73.280366 
L 129.727055 73.908467 
L 130.091022 73.279122 
L 130.454989 73.879354 
L 130.818957 73.680611 
L 131.182924 73.785919 
L 131.546891 73.674051 
L 131.910858 73.765441 
L 132.274825 74.203601 
L 132.638793 74.381819 
L 133.00276 74.42715 
L 133.366727 74.116823 
L 133.730694 74.481453 
L 134.094662 74.334785 
L 134.822596 74.917865 
L 135.55053 74.646172 
L 135.914498 74.970045 
L 136.278465 74.749951 
L 136.642432 75.491505 
L 137.006399 75.471097 
L 137.370366 75.668961 
L 138.098301 75.140444 
L 138.462268 75.788017 
L 138.826235 75.583909 
L 139.190202 75.057767 
L 139.55417 76.080037 
L 139.918137 75.923357 
L 140.646071 75.978075 
L 141.010038 76.397781 
L 141.374006 75.9817 
L 141.737973 76.075757 
L 142.10194 76.580681 
L 142.465907 76.108357 
L 143.193842 76.730283 
L 143.557809 76.738207 
L 143.921776 76.41226 
L 144.285743 76.936108 
L 144.649711 76.825471 
L 145.377645 77.485775 
L 146.105579 76.898227 
L 146.833514 76.964755 
L 147.197481 77.318134 
L 147.561448 77.159578 
L 147.925415 77.363989 
L 148.65335 77.431954 
L 149.017317 77.614228 
L 149.381284 78.323489 
L 149.745251 77.917003 
L 150.473186 78.093018 
L 150.837153 78.330144 
L 151.565088 78.437856 
L 151.929055 77.781222 
L 152.293022 78.53292 
L 152.656989 78.36786 
L 153.020956 78.450959 
L 153.384924 78.867401 
L 154.112858 78.908424 
L 154.476825 79.391202 
L 154.840792 79.340988 
L 155.20476 79.595445 
L 155.568727 79.173263 
L 155.932694 78.971135 
L 156.296661 79.843667 
L 156.660628 79.599024 
L 157.024596 79.521821 
L 157.75253 79.875256 
L 158.116497 79.675717 
L 158.480464 80.174779 
L 158.844432 80.042058 
L 159.208399 80.356489 
L 159.572366 79.90294 
L 160.300301 80.075801 
L 160.664268 81.400801 
L 161.028235 80.226793 
L 161.392202 80.253006 
L 161.756169 80.424189 
L 162.120137 80.425837 
L 162.484104 80.975559 
L 162.848071 80.905496 
L 163.212038 81.160104 
L 163.576005 80.749221 
L 163.939973 81.48195 
L 164.667907 80.888944 
L 165.031874 80.969324 
L 166.487743 82.228101 
L 166.85171 81.768895 
L 167.215677 81.824691 
L 167.579645 82.003578 
L 167.943612 82.555938 
L 168.307579 82.065179 
L 168.671546 82.011307 
L 169.035514 82.301363 
L 169.399481 82.11198 
L 169.763448 82.224774 
L 170.127415 82.695457 
L 170.491382 82.604756 
L 170.85535 82.927422 
L 171.583284 82.10424 
L 171.947251 83.053764 
L 172.311218 83.143839 
L 172.675186 82.901362 
L 173.039153 82.794263 
L 173.40312 83.442644 
L 173.767087 83.112222 
L 174.131054 82.9326 
L 174.495022 83.103916 
L 174.858989 82.872049 
L 175.222956 83.832568 
L 175.586923 83.796585 
L 175.95089 84.096435 
L 176.314858 83.278223 
L 176.678825 83.957027 
L 177.042792 84.052675 
L 177.406759 83.595006 
L 178.134694 84.277072 
L 178.498661 84.248371 
L 178.862628 84.84961 
L 179.226595 84.201365 
L 179.590563 84.170982 
L 179.95453 84.488328 
L 180.318497 84.518166 
L 180.682464 84.306984 
L 181.046431 84.41086 
L 181.410399 85.017563 
L 181.774366 84.782958 
L 182.138333 84.834769 
L 182.5023 84.73177 
L 182.866267 85.161071 
L 183.230235 84.999129 
L 183.594202 85.361788 
L 184.322136 84.91991 
L 184.686103 85.046392 
L 185.050071 85.999378 
L 185.778005 85.476181 
L 186.141972 85.243785 
L 186.50594 86.182599 
L 186.869907 85.699558 
L 187.233874 85.955447 
L 187.597841 85.830422 
L 188.325776 85.770651 
L 189.05371 86.723098 
L 189.417677 86.006229 
L 189.781644 86.496148 
L 190.509579 86.316024 
L 190.873546 86.814593 
L 191.237513 86.317365 
L 191.60148 87.252368 
L 191.965448 86.924033 
L 192.329415 86.870096 
L 192.693382 86.317379 
L 193.057349 86.381682 
L 193.421316 87.426235 
L 193.785284 87.692155 
L 195.241153 87.177205 
L 195.60512 87.979221 
L 195.969087 87.282482 
L 197.060989 88.126484 
L 197.788923 87.843092 
L 198.15289 88.223936 
L 198.880825 87.756384 
L 199.244792 88.044003 
L 199.608759 88.044417 
L 199.972726 88.346683 
L 200.336693 88.412095 
L 200.700661 88.317985 
L 201.064628 88.645737 
L 201.428595 88.568684 
L 201.792562 88.621058 
L 202.156529 88.825932 
L 202.520497 88.762757 
L 202.884464 88.505571 
L 203.248431 88.923225 
L 203.612398 89.022761 
L 203.976366 89.00611 
L 204.340333 89.711081 
L 204.7043 88.954848 
L 205.068267 89.303609 
L 205.432234 89.283004 
L 205.796202 89.618831 
L 206.160169 89.399165 
L 206.524136 90.300332 
L 206.888103 89.535138 
L 207.25207 90.013646 
L 207.616038 89.337509 
L 208.343972 90.052168 
L 208.707939 90.21336 
L 209.071906 89.785406 
L 209.799841 90.742425 
L 210.163808 90.019041 
L 210.527775 90.64676 
L 210.891742 90.21677 
L 211.25571 90.64347 
L 211.619677 90.594818 
L 211.983644 90.155996 
L 212.347611 90.821629 
L 212.711579 90.96543 
L 213.439513 90.760548 
L 214.531415 90.937576 
L 214.895382 91.455432 
L 215.259349 91.268496 
L 215.623316 91.371712 
L 215.987283 92.283715 
L 216.715218 91.607891 
L 217.079185 92.012001 
L 217.443152 92.00192 
L 217.807119 92.10464 
L 218.171087 92.620241 
L 218.535054 91.603865 
L 218.899021 92.20777 
L 219.626955 92.387176 
L 219.990923 92.225674 
L 220.35489 92.472742 
L 220.718857 92.20504 
L 221.082824 92.79691 
L 221.446792 91.631327 
L 221.810759 92.906203 
L 222.174726 92.471928 
L 222.538693 92.95878 
L 222.90266 92.407351 
L 223.266628 92.190669 
L 223.630595 93.4567 
L 223.994562 92.997198 
L 224.358529 93.348346 
L 225.086464 92.894985 
L 225.814398 93.423553 
L 226.178365 93.301542 
L 226.542332 93.31288 
L 226.9063 92.997431 
L 227.270267 93.814098 
L 227.634234 93.817389 
L 228.362168 93.45659 
L 228.726136 93.452259 
L 229.090103 93.95599 
L 229.45407 94.059862 
L 229.818037 93.925609 
L 230.545972 94.018783 
L 230.909939 93.789179 
L 231.273906 94.6569 
L 231.637873 94.846047 
L 232.365808 94.524464 
L 232.729775 95.056495 
L 233.093742 94.818053 
L 233.457709 94.192536 
L 233.821677 94.892413 
L 234.185644 95.278941 
L 234.549611 95.856435 
L 234.913578 95.104296 
L 236.00548 95.287276 
L 236.369447 95.921277 
L 236.733414 95.390187 
L 237.097381 95.644119 
L 237.461349 96.158902 
L 237.825316 96.06787 
L 238.189283 95.204476 
L 238.917218 95.882689 
L 239.281185 96.070996 
L 239.645152 96.101789 
L 240.009119 96.521716 
L 240.373086 95.37363 
L 240.737054 95.907195 
L 241.101021 96.186082 
L 241.464988 96.755705 
L 241.828955 96.696227 
L 242.192922 97.095419 
L 242.55689 96.526981 
L 243.284824 95.962464 
L 244.012758 97.015333 
L 244.376726 96.881283 
L 244.740693 97.273722 
L 245.10466 96.533821 
L 245.468627 97.10315 
L 245.832594 97.39438 
L 246.196562 97.232195 
L 246.560529 96.34298 
L 246.924496 97.013351 
L 247.288463 96.692622 
L 247.652431 97.021071 
L 248.016398 97.692223 
L 248.380365 97.81468 
L 248.744332 98.27437 
L 249.108299 97.852892 
L 249.472267 97.661453 
L 249.836234 97.663755 
L 250.200201 98.104697 
L 250.564168 96.95504 
L 250.928135 98.171488 
L 251.292103 98.023445 
L 251.65607 97.650076 
L 252.020037 98.305951 
L 252.384004 98.324825 
L 252.747971 97.738297 
L 253.111939 98.787029 
L 253.475906 98.386735 
L 254.20384 98.723675 
L 254.567807 99.269635 
L 254.931775 97.940659 
L 255.295742 99.074928 
L 255.659709 98.770512 
L 256.023676 99.148131 
L 256.387644 99.357229 
L 256.751611 99.245467 
L 257.115578 99.59827 
L 257.479545 99.455692 
L 257.843512 98.294284 
L 258.20748 99.917714 
L 258.571447 98.787501 
L 258.935414 99.506183 
L 259.299381 99.740932 
L 259.663348 99.661775 
L 260.027316 99.746778 
L 260.391283 99.577261 
L 261.119217 100.187345 
L 261.483184 98.689297 
L 261.847152 100.523164 
L 262.211119 100.460881 
L 262.575086 99.788 
L 262.939053 100.866942 
L 263.30302 100.198993 
L 263.666988 100.936758 
L 264.030955 100.756641 
L 264.394922 99.725789 
L 264.758889 99.888756 
L 265.122857 100.420322 
L 265.486824 100.55889 
L 265.850791 100.286835 
L 266.214758 100.187165 
L 266.578725 101.066022 
L 266.942693 101.42225 
L 267.30666 100.566004 
L 267.670627 101.317383 
L 268.398561 100.106686 
L 268.762529 101.113518 
L 269.126496 100.959073 
L 269.490463 101.322926 
L 269.85443 102.367419 
L 270.218397 101.56448 
L 270.582365 102.085217 
L 270.946332 102.200037 
L 271.674266 101.015628 
L 272.038233 101.265959 
L 272.402201 102.941075 
L 272.766168 101.870576 
L 273.130135 101.471042 
L 273.494102 102.267058 
L 273.85807 102.39404 
L 274.586004 102.217261 
L 274.949971 102.860977 
L 276.041873 101.858581 
L 276.40584 102.653132 
L 276.769807 102.604906 
L 277.133774 103.732295 
L 277.497742 102.435415 
L 277.861709 103.130941 
L 278.589643 102.1611 
L 278.95361 103.188905 
L 279.317578 102.919844 
L 279.681545 103.068932 
L 280.045512 103.745928 
L 280.409479 103.602836 
L 280.773446 103.307095 
L 281.137414 103.387865 
L 281.501381 103.584788 
L 281.865348 103.35303 
L 282.229315 103.84884 
L 282.593283 103.308519 
L 282.95725 103.975758 
L 283.321217 104.958546 
L 283.685184 103.255432 
L 284.049151 104.535245 
L 284.413119 104.222966 
L 284.777086 104.114194 
L 285.141053 103.143942 
L 285.50502 105.031168 
L 286.232955 104.716975 
L 286.596922 105.476959 
L 286.960889 104.133965 
L 287.688823 104.788963 
L 288.416758 104.238596 
L 288.780725 104.27206 
L 289.144692 105.264401 
L 289.508659 105.417667 
L 289.872627 104.536476 
L 290.236594 104.641771 
L 290.600561 104.979898 
L 290.964528 105.690604 
L 291.328496 105.405134 
L 291.692463 104.307741 
L 292.05643 105.23932 
L 292.420397 106.777923 
L 292.784364 105.892893 
L 293.148332 106.169204 
L 293.512299 105.357349 
L 293.876266 104.889141 
L 294.240233 105.296906 
L 294.968168 105.546229 
L 295.332135 105.541187 
L 296.060069 107.068821 
L 296.424036 105.706507 
L 296.788004 105.758308 
L 297.515938 106.550662 
L 297.879905 105.731426 
L 298.243872 106.365382 
L 298.60784 106.322064 
L 298.971807 107.454473 
L 299.699741 106.055398 
L 300.063709 107.778768 
L 300.427676 106.182979 
L 300.791643 105.859985 
L 301.15561 107.160303 
L 301.519577 106.627212 
L 302.247512 107.551625 
L 302.611479 106.384028 
L 302.975446 106.982938 
L 303.339413 106.748491 
L 303.703381 107.563695 
L 304.067348 107.136997 
L 304.431315 107.537204 
L 304.795282 106.790641 
L 305.159249 107.214178 
L 305.887184 107.487336 
L 306.251151 108.330689 
L 306.615118 108.27761 
L 306.979085 108.089019 
L 307.343053 108.591332 
L 307.70702 107.687112 
L 308.070987 108.520406 
L 308.434954 107.663176 
L 308.798922 108.151087 
L 309.162889 108.23486 
L 309.526856 107.940998 
L 310.25479 108.121435 
L 310.618758 109.137431 
L 310.982725 108.172493 
L 311.710659 108.769371 
L 312.074626 108.542982 
L 312.438594 109.609147 
L 312.802561 108.644141 
L 313.166528 108.069654 
L 313.530495 109.509034 
L 313.894462 108.682215 
L 314.622397 110.873929 
L 314.986364 108.762481 
L 315.350331 108.65183 
L 315.714298 108.89801 
L 316.078266 109.516275 
L 316.442233 109.274867 
L 316.8062 109.576136 
L 317.170167 109.058126 
L 317.534135 109.172536 
L 317.898102 110.267418 
L 318.262069 109.132485 
L 318.626036 110.345139 
L 318.990003 109.059336 
L 319.353971 110.293676 
L 319.717938 109.068219 
L 320.081905 108.765509 
L 320.445872 110.517516 
L 321.173807 110.433941 
L 321.537774 109.65188 
L 321.901741 111.035946 
L 322.265708 109.679669 
L 322.629675 111.423266 
L 322.993643 110.908706 
L 323.35761 110.633137 
L 323.721577 112.112278 
L 324.085544 110.652649 
L 324.449511 111.547564 
L 324.813479 111.628516 
L 325.541413 110.514423 
L 325.90538 111.565305 
L 326.269348 111.435379 
L 326.633315 111.095793 
L 326.997282 111.502938 
L 327.361249 112.282088 
L 327.725216 110.871235 
L 328.089184 111.886255 
L 328.453151 111.328824 
L 328.817118 112.510306 
L 329.181085 112.226585 
L 329.545052 112.531068 
L 330.272987 112.454088 
L 330.636954 112.168437 
L 331.000921 112.187655 
L 331.364888 113.031181 
L 331.728856 111.74045 
L 332.092823 112.099069 
L 332.45679 113.27215 
L 332.820757 110.670074 
L 333.184724 113.058291 
L 333.548692 111.911858 
L 333.912659 112.280437 
L 334.276626 114.159954 
L 334.640593 112.95636 
L 335.004561 112.572056 
L 335.368528 113.651515 
L 335.732495 112.127231 
L 336.096462 111.890408 
L 337.188364 113.077679 
L 337.552331 113.180487 
L 337.916298 114.097189 
L 338.280265 113.123838 
L 338.644233 113.475959 
L 339.0082 112.89368 
L 339.372167 114.241604 
L 340.100101 113.332049 
L 340.464069 113.66062 
L 340.828036 113.718549 
L 341.192003 113.971512 
L 341.55597 112.733475 
L 341.919937 114.462273 
L 342.283905 115.079679 
L 342.647872 114.445362 
L 343.011839 114.339301 
L 343.739774 114.95388 
L 344.103741 114.411914 
L 344.831675 113.873717 
L 345.195642 115.66227 
L 345.923577 114.220579 
L 346.287544 114.203633 
L 346.651511 115.148226 
L 347.015478 114.033095 
L 347.379446 115.362476 
L 347.743413 114.068004 
L 348.10738 113.44148 
L 348.471347 114.084439 
L 348.835314 113.60535 
L 349.199282 115.647717 
L 349.563249 115.155916 
L 349.927216 114.901623 
L 350.291183 115.398936 
L 350.65515 115.121092 
L 351.019118 115.00245 
L 351.383085 115.176987 
L 351.747052 115.667447 
L 352.111019 114.932377 
L 352.474987 115.002935 
L 352.838954 116.90267 
L 353.202921 115.358598 
L 353.566888 115.332555 
L 354.294823 116.028895 
L 354.65879 115.856378 
L 355.386724 116.451307 
L 355.750691 115.3635 
L 356.114659 117.661396 
L 356.478626 116.393237 
L 357.20656 116.137046 
L 357.934495 116.775207 
L 358.298462 117.051656 
L 358.662429 116.408343 
L 359.026396 117.874912 
L 359.754331 116.515528 
L 360.118298 117.360846 
L 360.482265 117.575555 
L 360.846232 117.115287 
L 361.2102 118.446595 
L 361.938134 116.609668 
L 362.302101 116.983903 
L 362.666068 117.534872 
L 363.030036 117.022776 
L 363.75797 117.418977 
L 364.121937 117.46275 
L 364.485904 117.007615 
L 365.213839 118.323153 
L 365.577806 116.91106 
L 365.941773 117.59092 
L 366.30574 117.832378 
L 366.669708 119.6428 
L 367.033675 118.092596 
L 367.397642 117.804907 
L 367.761609 118.376716 
L 368.125576 119.331282 
L 368.489544 118.110432 
L 368.853511 117.894892 
L 369.217478 119.773298 
L 369.581445 118.151495 
L 369.945413 117.915929 
L 370.30938 118.388303 
L 370.673347 118.667423 
L 371.037314 118.732686 
L 371.401281 118.180236 
L 371.765249 119.057344 
L 372.129216 117.065933 
L 372.493183 118.793827 
L 373.221117 117.124396 
L 373.585085 119.237111 
L 373.949052 119.476631 
L 374.313019 118.792362 
L 374.676986 118.939651 
L 375.040953 118.336462 
L 375.404921 119.870752 
L 375.768888 119.550656 
L 376.132855 120.428694 
L 376.496822 119.307849 
L 376.860789 119.561879 
L 377.224757 120.558155 
L 377.588724 119.206775 
L 377.952691 119.993984 
L 378.316658 119.849211 
L 378.680626 120.03962 
L 379.044593 121.791506 
L 379.40856 120.344664 
L 379.772527 121.477896 
L 380.136494 119.251774 
L 380.500462 121.851957 
L 380.864429 121.16916 
L 381.228396 120.147079 
L 381.592363 120.514121 
L 381.95633 119.607111 
L 382.320298 120.809511 
L 382.684265 121.159631 
L 383.048232 120.576289 
L 383.412199 119.314924 
L 384.140134 121.310528 
L 384.504101 120.191886 
L 384.868068 119.985284 
L 385.232035 121.169681 
L 385.596002 120.152316 
L 385.95997 120.978509 
L 386.323937 123.823736 
L 386.687904 121.104885 
L 387.051871 120.431717 
L 387.415839 120.175375 
L 387.779806 122.645879 
L 388.143773 121.116351 
L 388.50774 121.063708 
L 388.871707 121.226581 
L 389.235675 120.92473 
L 389.599642 121.414312 
L 389.963609 120.164237 
L 390.327576 122.015658 
L 390.691543 122.92649 
L 391.055511 121.765249 
L 391.419478 122.257935 
L 391.783445 122.459314 
L 392.147412 122.96967 
L 392.511379 121.731569 
L 392.875347 124.239705 
L 393.239314 121.828318 
L 393.603281 122.624247 
L 393.967248 123.962857 
L 394.331215 122.903289 
L 394.695183 122.222345 
L 395.05915 123.61574 
L 395.423117 125.519439 
L 395.787084 123.631171 
L 396.151052 123.738477 
L 396.515019 121.579897 
L 396.878986 122.393555 
L 397.242953 122.153503 
L 397.60692 123.117214 
L 397.970888 121.406718 
L 398.334855 124.495428 
L 398.698822 124.36486 
L 399.062789 124.514743 
L 399.426756 124.37543 
L 399.790724 123.684678 
L 400.154691 122.61282 
L 400.518658 125.56553 
L 400.882625 125.152011 
L 401.246592 123.650124 
L 401.61056 124.256475 
L 401.974527 122.728554 
L 402.338494 124.967837 
L 402.702461 122.579561 
L 403.066428 123.586765 
L 403.430396 123.158937 
L 403.794363 123.601965 
L 404.15833 122.546233 
L 404.522297 124.274744 
L 404.886265 122.441317 
L 405.250232 125.037133 
L 405.614199 125.155612 
L 405.978166 126.220504 
L 406.342133 125.527525 
L 406.706101 124.171208 
L 407.070068 124.12733 
L 407.434035 123.812357 
L 408.161969 123.721578 
L 408.525937 125.351379 
L 408.889904 124.429043 
L 409.253871 124.419441 
L 409.617838 127.335849 
L 409.981805 126.941525 
L 410.345773 124.92576 
L 410.70974 123.638591 
L 411.073707 125.94493 
L 411.437674 125.891532 
L 411.801641 125.185001 
L 412.165609 125.818028 
L 412.529576 125.734291 
L 412.893543 123.551708 
L 413.25751 125.428857 
L 413.621478 124.763167 
L 413.985445 128.013111 
L 414.349412 125.769781 
L 414.713379 125.554032 
L 415.077346 123.853286 
L 415.441314 124.923635 
L 415.805281 125.60158 
L 416.169248 125.806442 
L 416.533215 124.511595 
L 416.897182 124.672139 
L 417.26115 127.01381 
L 417.625117 126.276539 
L 417.989084 125.122876 
L 418.353051 125.156702 
L 418.717018 125.486756 
L 419.444953 129.268148 
L 419.80892 125.644124 
L 420.172887 126.649621 
L 420.536854 127.222302 
L 420.900822 126.335558 
L 421.628756 126.587518 
L 421.992723 127.866423 
L 422.356691 125.998157 
L 422.720658 126.125964 
L 423.448592 128.042557 
L 423.812559 127.96033 
L 424.176527 126.808069 
L 424.540494 127.634428 
L 425.268428 126.705372 
L 425.632395 129.572568 
L 425.996363 127.315076 
L 426.36033 128.141107 
L 426.724297 126.385417 
L 427.088264 127.759039 
L 427.452231 128.105797 
L 427.816199 125.823161 
L 428.180166 128.220145 
L 428.544133 129.257879 
L 428.9081 127.140852 
L 429.272067 126.892667 
L 429.636035 129.279125 
L 430.000002 126.460868 
L 430.363969 127.679198 
L 430.727936 130.538182 
L 431.091904 129.93599 
L 431.455871 129.079559 
L 431.819838 88.210331 
L 431.819838 88.210331 
" style="fill:none;stroke:#1f77b4;stroke-linecap:square;stroke-width:1.5;"/>
   </g>
   <g id="patch_3">
    <path d="M 50.036435 136.24 
L 50.036435 10.8 
" style="fill:none;stroke:#000000;stroke-linecap:square;stroke-linejoin:miter;stroke-width:0.8;"/>
   </g>
   <g id="patch_4">
    <path d="M 450 136.24 
L 450 10.8 
" style="fill:none;stroke:#000000;stroke-linecap:square;stroke-linejoin:miter;stroke-width:0.8;"/>
   </g>
   <g id="patch_5">
    <path d="M 50.036435 136.24 
L 450 136.24 
" style="fill:none;stroke:#000000;stroke-linecap:square;stroke-linejoin:miter;stroke-width:0.8;"/>
   </g>
   <g id="patch_6">
    <path d="M 50.036435 10.8 
L 450 10.8 
" style="fill:none;stroke:#000000;stroke-linecap:square;stroke-linejoin:miter;stroke-width:0.8;"/>
   </g>
  </g>
  <g id="axes_2">
   <g id="patch_7">
    <path d="M 50.036435 303.64 
L 450 303.64 
L 450 178.2 
L 50.036435 178.2 
z
" style="fill:#ffffff;"/>
   </g>
   <g id="matplotlib.axis_3">
    <g id="xtick_7">
     <g id="line2d_11">
      <g>
       <use style="stroke:#000000;stroke-width:0.8;" x="66.380217" xlink:href="#ma8aae529ff" y="303.64"/>
      </g>
     </g>
     <g id="text_12">
      <!-- 0 -->
      <g transform="translate(63.198967 318.238437)scale(0.1 -0.1)">
       <use xlink:href="#DejaVuSans-48"/>
      </g>
     </g>
    </g>
    <g id="xtick_8">
     <g id="line2d_12">
      <g>
       <use style="stroke:#000000;stroke-width:0.8;" x="139.835417" xlink:href="#ma8aae529ff" y="303.64"/>
      </g>
     </g>
     <g id="text_13">
      <!-- 2 -->
      <g transform="translate(136.654167 318.238437)scale(0.1 -0.1)">
       <use xlink:href="#DejaVuSans-50"/>
      </g>
     </g>
    </g>
    <g id="xtick_9">
     <g id="line2d_13">
      <g>
       <use style="stroke:#000000;stroke-width:0.8;" x="213.290617" xlink:href="#ma8aae529ff" y="303.64"/>
      </g>
     </g>
     <g id="text_14">
      <!-- 4 -->
      <g transform="translate(210.109367 318.238437)scale(0.1 -0.1)">
       <use xlink:href="#DejaVuSans-52"/>
      </g>
     </g>
    </g>
    <g id="xtick_10">
     <g id="line2d_14">
      <g>
       <use style="stroke:#000000;stroke-width:0.8;" x="286.745817" xlink:href="#ma8aae529ff" y="303.64"/>
      </g>
     </g>
     <g id="text_15">
      <!-- 6 -->
      <g transform="translate(283.564567 318.238437)scale(0.1 -0.1)">
       <use xlink:href="#DejaVuSans-54"/>
      </g>
     </g>
    </g>
    <g id="xtick_11">
     <g id="line2d_15">
      <g>
       <use style="stroke:#000000;stroke-width:0.8;" x="360.201018" xlink:href="#ma8aae529ff" y="303.64"/>
      </g>
     </g>
     <g id="text_16">
      <!-- 8 -->
      <g transform="translate(357.019768 318.238437)scale(0.1 -0.1)">
       <use xlink:href="#DejaVuSans-56"/>
      </g>
     </g>
    </g>
    <g id="xtick_12">
     <g id="line2d_16">
      <g>
       <use style="stroke:#000000;stroke-width:0.8;" x="433.656218" xlink:href="#ma8aae529ff" y="303.64"/>
      </g>
     </g>
     <g id="text_17">
      <!-- 10 -->
      <g transform="translate(427.293718 318.238437)scale(0.1 -0.1)">
       <use xlink:href="#DejaVuSans-49"/>
       <use x="63.623047" xlink:href="#DejaVuSans-48"/>
      </g>
     </g>
    </g>
    <g id="text_18">
     <!-- Distance from source (mm) -->
     <g transform="translate(181.511967 331.916562)scale(0.1 -0.1)">
      <use xlink:href="#DejaVuSans-68"/>
      <use x="77.001953" xlink:href="#DejaVuSans-105"/>
      <use x="104.785156" xlink:href="#DejaVuSans-115"/>
      <use x="156.884766" xlink:href="#DejaVuSans-116"/>
      <use x="196.09375" xlink:href="#DejaVuSans-97"/>
      <use x="257.373047" xlink:href="#DejaVuSans-110"/>
      <use x="320.751953" xlink:href="#DejaVuSans-99"/>
      <use x="375.732422" xlink:href="#DejaVuSans-101"/>
      <use x="437.255859" xlink:href="#DejaVuSans-32"/>
      <use x="469.042969" xlink:href="#DejaVuSans-102"/>
      <use x="504.248047" xlink:href="#DejaVuSans-114"/>
      <use x="543.111328" xlink:href="#DejaVuSans-111"/>
      <use x="604.292969" xlink:href="#DejaVuSans-109"/>
      <use x="701.705078" xlink:href="#DejaVuSans-32"/>
      <use x="733.492188" xlink:href="#DejaVuSans-115"/>
      <use x="785.591797" xlink:href="#DejaVuSans-111"/>
      <use x="846.773438" xlink:href="#DejaVuSans-117"/>
      <use x="910.152344" xlink:href="#DejaVuSans-114"/>
      <use x="949.015625" xlink:href="#DejaVuSans-99"/>
      <use x="1003.996094" xlink:href="#DejaVuSans-101"/>
      <use x="1065.519531" xlink:href="#DejaVuSans-32"/>
      <use x="1097.306641" xlink:href="#DejaVuSans-40"/>
      <use x="1136.320312" xlink:href="#DejaVuSans-109"/>
      <use x="1233.732422" xlink:href="#DejaVuSans-109"/>
      <use x="1331.144531" xlink:href="#DejaVuSans-41"/>
     </g>
    </g>
   </g>
   <g id="matplotlib.axis_4">
    <g id="ytick_4">
     <g id="line2d_17">
      <g>
       <use style="stroke:#000000;stroke-width:0.8;" x="50.036435" xlink:href="#m3d428e4002" y="228.871026"/>
      </g>
     </g>
     <g id="text_19">
      <!-- $\mathdefault{10^{1}}$ -->
      <g transform="translate(25.436435 232.670245)scale(0.1 -0.1)">
       <use transform="translate(0 0.684375)" xlink:href="#DejaVuSans-49"/>
       <use transform="translate(63.623047 0.684375)" xlink:href="#DejaVuSans-48"/>
       <use transform="translate(128.203125 38.965625)scale(0.7)" xlink:href="#DejaVuSans-49"/>
      </g>
     </g>
    </g>
    <g id="ytick_5">
     <g id="line2d_18">
      <defs>
       <path d="M 0 0 
L -2 0 
" id="mf6a34d56d2" style="stroke:#000000;stroke-width:0.6;"/>
      </defs>
      <g>
       <use style="stroke:#000000;stroke-width:0.6;" x="50.036435" xlink:href="#mf6a34d56d2" y="286.603793"/>
      </g>
     </g>
    </g>
    <g id="ytick_6">
     <g id="line2d_19">
      <g>
       <use style="stroke:#000000;stroke-width:0.6;" x="50.036435" xlink:href="#mf6a34d56d2" y="272.059198"/>
      </g>
     </g>
    </g>
    <g id="ytick_7">
     <g id="line2d_20">
      <g>
       <use style="stroke:#000000;stroke-width:0.6;" x="50.036435" xlink:href="#mf6a34d56d2" y="261.739644"/>
      </g>
     </g>
    </g>
    <g id="ytick_8">
     <g id="line2d_21">
      <g>
       <use style="stroke:#000000;stroke-width:0.6;" x="50.036435" xlink:href="#mf6a34d56d2" y="253.735176"/>
      </g>
     </g>
    </g>
    <g id="ytick_9">
     <g id="line2d_22">
      <g>
       <use style="stroke:#000000;stroke-width:0.6;" x="50.036435" xlink:href="#mf6a34d56d2" y="247.195049"/>
      </g>
     </g>
    </g>
    <g id="ytick_10">
     <g id="line2d_23">
      <g>
       <use style="stroke:#000000;stroke-width:0.6;" x="50.036435" xlink:href="#mf6a34d56d2" y="241.665451"/>
      </g>
     </g>
    </g>
    <g id="ytick_11">
     <g id="line2d_24">
      <g>
       <use style="stroke:#000000;stroke-width:0.6;" x="50.036435" xlink:href="#mf6a34d56d2" y="236.875495"/>
      </g>
     </g>
    </g>
    <g id="ytick_12">
     <g id="line2d_25">
      <g>
       <use style="stroke:#000000;stroke-width:0.6;" x="50.036435" xlink:href="#mf6a34d56d2" y="232.650454"/>
      </g>
     </g>
    </g>
    <g id="ytick_13">
     <g id="line2d_26">
      <g>
       <use style="stroke:#000000;stroke-width:0.6;" x="50.036435" xlink:href="#mf6a34d56d2" y="204.006877"/>
      </g>
     </g>
    </g>
    <g id="ytick_14">
     <g id="line2d_27">
      <g>
       <use style="stroke:#000000;stroke-width:0.6;" x="50.036435" xlink:href="#mf6a34d56d2" y="189.462282"/>
      </g>
     </g>
    </g>
    <g id="ytick_15">
     <g id="line2d_28">
      <g>
       <use style="stroke:#000000;stroke-width:0.6;" x="50.036435" xlink:href="#mf6a34d56d2" y="179.142728"/>
      </g>
     </g>
    </g>
    <g id="text_20">
     <!-- Transmittance -->
     <defs>
      <path d="M -0.296875 72.90625 
L 61.375 72.90625 
L 61.375 64.59375 
L 35.5 64.59375 
L 35.5 0 
L 25.59375 0 
L 25.59375 64.59375 
L -0.296875 64.59375 
z
" id="DejaVuSans-84"/>
     </defs>
     <g transform="translate(19.356747 276.367656)rotate(-90)scale(0.1 -0.1)">
      <use xlink:href="#DejaVuSans-84"/>
      <use x="46.333984" xlink:href="#DejaVuSans-114"/>
      <use x="87.447266" xlink:href="#DejaVuSans-97"/>
      <use x="148.726562" xlink:href="#DejaVuSans-110"/>
      <use x="212.105469" xlink:href="#DejaVuSans-115"/>
      <use x="264.205078" xlink:href="#DejaVuSans-109"/>
      <use x="361.617188" xlink:href="#DejaVuSans-105"/>
      <use x="389.400391" xlink:href="#DejaVuSans-116"/>
      <use x="428.609375" xlink:href="#DejaVuSans-116"/>
      <use x="467.818359" xlink:href="#DejaVuSans-97"/>
      <use x="529.097656" xlink:href="#DejaVuSans-110"/>
      <use x="592.476562" xlink:href="#DejaVuSans-99"/>
      <use x="647.457031" xlink:href="#DejaVuSans-101"/>
     </g>
    </g>
   </g>
   <g id="line2d_29">
    <path clip-path="url(#p05b08d7931)" d="M 68.216597 187.064486 
L 71.889357 184.909843 
L 75.562117 185.880193 
L 79.234877 183.923876 
L 82.907637 183.901818 
L 86.580397 184.15496 
L 90.253157 184.33207 
L 93.925917 183.949547 
L 97.598677 186.415889 
L 101.271437 185.73214 
L 104.944197 186.969618 
L 108.616957 187.301713 
L 112.289717 187.314971 
L 115.962477 189.541104 
L 119.635237 187.787412 
L 123.307997 188.085002 
L 126.980757 187.384719 
L 130.653517 189.227923 
L 134.326277 189.606502 
L 137.999037 190.691856 
L 141.671797 191.03112 
L 145.344557 191.304308 
L 149.017317 192.08036 
L 152.690077 192.989632 
L 156.362837 194.622145 
L 160.035597 194.552502 
L 163.708357 194.92469 
L 167.381117 195.940958 
L 171.053877 196.441957 
L 174.726637 197.695257 
L 178.399397 198.139346 
L 182.072157 198.14967 
L 185.744917 200.748922 
L 189.417677 200.933001 
L 193.090437 202.348263 
L 196.763197 203.105198 
L 200.435957 204.65412 
L 204.108717 205.760247 
L 207.781477 206.359563 
L 211.454237 207.308096 
L 215.126997 208.189024 
L 218.799757 209.213148 
L 222.472517 210.680155 
L 226.145277 212.720507 
L 229.818037 211.965386 
L 233.490797 214.471002 
L 237.163557 214.915995 
L 240.836317 217.060542 
L 244.509077 218.472086 
L 248.181837 219.305746 
L 251.854597 220.854384 
L 255.527357 221.369421 
L 259.200117 223.067338 
L 262.872877 224.121089 
L 266.545637 226.165743 
L 270.218397 226.892659 
L 273.891157 228.398659 
L 277.563917 229.881888 
L 281.236677 231.923365 
L 284.909437 232.148008 
L 288.582198 233.994697 
L 292.254958 234.028002 
L 295.927718 235.584405 
L 299.600478 238.355323 
L 303.273238 241.175547 
L 306.945998 241.696157 
L 310.618758 243.108827 
L 314.291518 244.61375 
L 317.964278 246.581427 
L 321.637038 248.820809 
L 325.309798 249.598216 
L 328.982558 251.252531 
L 332.655318 252.619553 
L 336.328078 255.106179 
L 340.000838 255.756744 
L 343.673598 257.464696 
L 347.346358 258.590431 
L 351.019118 260.193082 
L 354.691878 262.436471 
L 358.364638 263.517969 
L 362.037398 266.53782 
L 365.710158 268.076268 
L 369.382918 268.564205 
L 373.055678 271.782726 
L 376.728438 272.356312 
L 380.401198 274.584668 
L 384.073958 277.223616 
L 387.746718 277.332357 
L 391.419478 281.699781 
L 395.092238 282.077048 
L 398.764998 284.050214 
L 402.437758 285.044444 
L 406.110518 286.721147 
L 409.783278 288.925321 
L 413.456038 290.172893 
L 417.128798 291.076779 
L 420.801558 293.282376 
L 424.474318 296.469889 
L 428.147078 297.938182 
L 431.819838 188.835791 
" style="fill:none;stroke:#1f77b4;stroke-linecap:square;stroke-width:1.5;"/>
   </g>
   <g id="patch_8">
    <path d="M 50.036435 303.64 
L 50.036435 178.2 
" style="fill:none;stroke:#000000;stroke-linecap:square;stroke-linejoin:miter;stroke-width:0.8;"/>
   </g>
   <g id="patch_9">
    <path d="M 450 303.64 
L 450 178.2 
" style="fill:none;stroke:#000000;stroke-linecap:square;stroke-linejoin:miter;stroke-width:0.8;"/>
   </g>
   <g id="patch_10">
    <path d="M 50.036435 303.64 
L 450 303.64 
" style="fill:none;stroke:#000000;stroke-linecap:square;stroke-linejoin:miter;stroke-width:0.8;"/>
   </g>
   <g id="patch_11">
    <path d="M 50.036435 178.2 
L 450 178.2 
" style="fill:none;stroke:#000000;stroke-linecap:square;stroke-linejoin:miter;stroke-width:0.8;"/>
   </g>
  </g>
 </g>
 <defs>
  <clipPath id="pb8590ed19e">
   <rect height="125.44" width="399.963565" x="50.036435" y="10.8"/>
  </clipPath>
  <clipPath id="p05b08d7931">
   <rect height="125.44" width="399.963565" x="50.036435" y="178.2"/>
  </clipPath>
 </defs>
</svg>
